<svg width="64" height="64" viewBox="0 0 64 64" fill="none" xmlns="http://www.w3.org/2000/svg">
<g filter="url(#filter0_d_1_54)">
<path d="M36.2419 48.0491C28.0383 53.9169 18.5985 51.5121 18.5985 51.5121L11 12L44.4333 31.756C44.4333 31.756 44.6838 42.0108 36.2419 48.0491Z" fill="#FFC700"/>
<path d="M17.6165 51.7009L17.7364 52.3244L18.3516 52.4811L18.5985 51.5121C18.3516 52.4811 18.352 52.4812 18.3525 52.4813L18.3535 52.4816L18.3563 52.4823L18.3645 52.4843L18.3912 52.4909C18.4135 52.4962 18.4448 52.5036 18.4847 52.5127C18.5646 52.5309 18.6792 52.5558 18.8258 52.5849C19.1191 52.6429 19.5411 52.7176 20.0707 52.7875C21.1291 52.9273 22.6232 53.049 24.3829 52.9802C27.898 52.8429 32.517 51.9429 36.8236 48.8625C41.2771 45.677 43.4264 41.3848 44.4614 37.9248C44.9792 36.1937 45.2218 34.6597 45.3353 33.5548C45.3921 33.0018 45.4167 32.5544 45.427 32.2414C45.4322 32.0849 45.4338 31.9617 45.434 31.8756C45.4341 31.8326 45.4339 31.7987 45.4337 31.7746L45.4333 31.7457L45.4331 31.7368L45.433 31.7337L45.433 31.7325C45.433 31.7321 45.433 31.7316 44.4333 31.756L45.433 31.7316L45.4194 31.1772L44.942 30.8951L11.5087 11.1391L9.59911 10.0107L10.018 12.1888L17.6165 51.7009Z" stroke="white" stroke-width="2" stroke-linecap="square"/>
</g>
<path d="M37.8336 33.0986C40.3138 36.6407 39.9195 41.1961 36.953 43.2733C33.9865 45.3504 29.571 44.1629 27.0908 40.6208C24.6106 37.0787 25.0049 32.5234 27.9714 30.4462C30.9379 28.369 35.3534 29.5566 37.8336 33.0986Z" fill="#D3A80D"/>
<path d="M17.5037 23.7757C18.9048 25.7768 21.6628 26.2631 23.6638 24.8619C25.095 23.8598 25.7514 22.1634 25.4964 20.5464L19.5998 17.0865C19.2496 17.2156 18.91 17.3914 18.5899 17.6156C16.5888 19.0168 16.1025 21.7747 17.5037 23.7757Z" fill="#D3A80D"/>
<path d="M19.5314 36.4173C20.731 38.1306 20.3146 40.492 18.6014 41.6916C18.066 42.0665 17.4673 42.2836 16.8605 42.3526L15.4319 34.935C16.9305 34.5261 18.5892 35.0718 19.5314 36.4173Z" fill="#D3A80D"/>
<defs>
<filter id="filter0_d_1_54" x="2.19823" y="4.02133" width="50.2358" height="57.9787" filterUnits="userSpaceOnUse" color-interpolation-filters="sRGB">
<feFlood flood-opacity="0" result="BackgroundImageFix"/>
<feColorMatrix in="SourceAlpha" type="matrix" values="0 0 0 0 0 0 0 0 0 0 0 0 0 0 0 0 0 0 127 0" result="hardAlpha"/>
<feOffset dy="2"/>
<feGaussianBlur stdDeviation="3"/>
<feColorMatrix type="matrix" values="0 0 0 0 0 0 0 0 0 0 0 0 0 0 0 0 0 0 0.35 0"/>
<feBlend mode="normal" in2="BackgroundImageFix" result="effect1_dropShadow_1_54"/>
<feBlend mode="normal" in="SourceGraphic" in2="effect1_dropShadow_1_54" result="shape"/>
</filter>
</defs>
</svg>
