<svg width="128" height="64" viewBox="0 0 128 64" fill="none" xmlns="http://www.w3.org/2000/svg">
<rect width="16" height="16" fill="#3E3E3E"/>
<rect x="32" width="16" height="16" fill="#3E3E3E"/>
<rect x="64" width="16" height="16" fill="#3E3E3E"/>
<rect x="96" width="16" height="16" fill="#3E3E3E"/>
<rect x="16" width="16" height="16" fill="white"/>
<rect x="48" width="16" height="16" fill="white"/>
<rect x="80" width="16" height="16" fill="white"/>
<rect x="112" width="16" height="16" fill="white"/>
<rect y="16" width="16" height="16" fill="white"/>
<rect x="32" y="16" width="16" height="16" fill="white"/>
<rect x="64" y="16" width="16" height="16" fill="white"/>
<rect x="96" y="16" width="16" height="16" fill="white"/>
<rect x="16" y="16" width="16" height="16" fill="#3E3E3E"/>
<rect x="48" y="16" width="16" height="16" fill="#3E3E3E"/>
<rect x="80" y="16" width="16" height="16" fill="#3E3E3E"/>
<rect x="112" y="16" width="16" height="16" fill="#3E3E3E"/>
<rect y="32" width="16" height="16" fill="#3E3E3E"/>
<rect x="32" y="32" width="16" height="16" fill="#3E3E3E"/>
<rect x="64" y="32" width="16" height="16" fill="#3E3E3E"/>
<rect x="96" y="32" width="16" height="16" fill="#3E3E3E"/>
<rect x="16" y="32" width="16" height="16" fill="white"/>
<rect x="48" y="32" width="16" height="16" fill="white"/>
<rect x="80" y="32" width="16" height="16" fill="white"/>
<rect x="112" y="32" width="16" height="16" fill="white"/>
<rect y="48" width="16" height="16" fill="white"/>
<rect x="32" y="48" width="16" height="16" fill="white"/>
<rect x="64" y="48" width="16" height="16" fill="white"/>
<rect x="96" y="48" width="16" height="16" fill="white"/>
<rect x="16" y="48" width="16" height="16" fill="#3E3E3E"/>
<rect x="48" y="48" width="16" height="16" fill="#3E3E3E"/>
<rect x="80" y="48" width="16" height="16" fill="#3E3E3E"/>
<rect x="112" y="48" width="16" height="16" fill="#3E3E3E"/>
</svg>
