<svg width="89" height="260" viewBox="0 0 89 260" fill="none" xmlns="http://www.w3.org/2000/svg">
<g filter="url(#filter0_f_303_19790)">
<ellipse cx="30.8531" cy="247.123" rx="2.96667" ry="10.3833" fill="#8BDCF2"/>
</g>
<g filter="url(#filter1_f_303_19790)">
<ellipse cx="30.8536" cy="243.044" rx="1.48333" ry="6.30417" fill="white"/>
</g>
<g filter="url(#filter2_f_303_19790)">
<ellipse cx="56.9599" cy="247.123" rx="2.96667" ry="10.3833" fill="#8BDCF2"/>
</g>
<g filter="url(#filter3_f_303_19790)">
<ellipse cx="56.9603" cy="243.044" rx="1.48333" ry="6.30417" fill="white"/>
</g>
<g clip-path="url(#clip0_303_19790)">
<path d="M75.0564 213.659L14.2991 213.659L14.2991 218.584L75.0564 218.584L75.0564 213.659Z" fill="#383838"/>
<path d="M66.0378 211.82L23.3771 211.82C22.1647 211.82 21.1818 212.803 21.1818 214.015L21.1818 218.287C21.1818 219.5 22.1647 220.482 23.3771 220.482L66.0378 220.482C67.2503 220.482 68.2332 219.5 68.2332 218.287L68.2332 214.015C68.2332 212.803 67.2503 211.82 66.0378 211.82Z" fill="#242424"/>
<path d="M30.2594 111.19L10.2047 111.19L10.2047 122.582L30.2594 122.582L30.2594 111.19Z" fill="#FF2800"/>
<path d="M77.9044 111.131L57.8498 111.131L57.8498 122.523L77.9044 122.523L77.9044 111.131Z" fill="#FF2800"/>
<path d="M26.8779 105.495L25.0979 105.495C23.0007 105.495 21.3006 107.195 21.3006 109.292L21.3006 109.648C21.3006 111.745 23.0007 113.445 25.0979 113.445L26.8779 113.445C28.9751 113.445 30.6753 111.745 30.6753 109.648L30.6753 109.292C30.6753 107.195 28.9751 105.495 26.8779 105.495Z" fill="#FF2800"/>
<path d="M61.9436 105.435L60.1636 105.435C58.0663 105.435 56.3662 107.135 56.3662 109.232L56.3662 109.588C56.3662 111.686 58.0663 113.386 60.1636 113.386L61.9436 113.386C64.0408 113.386 65.7409 111.686 65.7409 109.588L65.7409 109.232C65.7409 107.135 64.0408 105.435 61.9436 105.435Z" fill="#FF2800"/>
<path d="M20.1134 107.394C18.3927 104.961 14.0613 104.605 11.51 104.605C10.442 104.605 9.55202 105.495 9.55202 106.563L9.55202 110.716C9.55202 111.784 10.442 112.674 11.51 112.674L28.064 112.674C29.132 112.674 30.022 111.784 30.022 110.716L30.022 110.182C30.022 109.114 29.132 108.224 28.064 108.224L21.656 108.224C21.0627 108.224 20.4694 107.928 20.1134 107.453L20.1134 107.394Z" fill="#FF2800"/>
<path d="M68.8262 107.097C70.5469 104.664 74.8782 104.308 77.4295 104.308C78.4975 104.308 79.3875 105.198 79.3875 106.266L79.3875 110.419C79.3875 111.487 78.4975 112.377 77.4295 112.377L60.8755 112.377C59.8075 112.377 58.9175 111.487 58.9175 110.419L58.9175 109.885C58.9175 108.817 59.8075 107.927 60.8755 107.927L67.2835 107.927C67.8769 107.927 68.4702 107.631 68.8262 107.156L68.8262 107.097Z" fill="#FF2800"/>
<path d="M80.2185 127.982L79.4472 126.439L9.90851 126.439L9.13717 127.982C6.5265 133.144 5.22118 138.959 5.22118 144.892L5.22117 196.868L84.1345 196.868L84.1345 144.892C84.1345 138.959 82.7698 133.144 80.2185 127.982Z" fill="#242424"/>
<path opacity="0.2" d="M73.6325 127.982L72.9798 126.439L16.3759 126.439L15.7232 127.982C13.6465 133.144 12.5192 138.959 12.5192 144.892L12.5192 196.868L76.8365 196.868L76.8365 144.892C76.8365 138.959 75.7092 133.144 73.6325 127.982Z" fill="black"/>
<path d="M11.8069 127.982L12.5189 126.439L9.90825 126.439L9.13691 127.982C6.52625 133.144 5.22092 138.959 5.22092 144.892L5.22092 196.868L8.18758 196.868L8.18759 144.892C8.18759 138.959 9.43358 133.144 11.8069 127.982Z" fill="#0B1114"/>
<path d="M80.2185 127.982L79.4472 126.439L76.8365 126.439L77.5485 127.982C79.9218 133.144 81.1678 138.959 81.1678 144.892L81.1678 196.868L84.1345 196.868L84.1345 144.892C84.1345 138.959 82.7698 133.144 80.2185 127.982Z" fill="#0B1114"/>
<path d="M59.5706 105.613C59.5706 99.5021 56.5446 97.1881 55.9512 93.9248L33.1672 93.9248C32.5739 97.1881 29.3106 99.5021 29.3106 105.613C29.3106 118.845 5.33991 107.037 10.2052 136.111C13.8839 158.064 29.9039 222.915 29.9039 222.915C30.7939 226.713 33.9979 229.442 37.6766 229.442L51.2639 229.442C54.9426 229.442 58.2059 226.772 59.0366 222.915C59.0366 222.915 75.0566 158.123 78.7352 136.111C83.5412 107.037 59.6299 118.845 59.6299 105.613L59.5706 105.613Z" fill="#FF2800"/>
<path d="M71.5557 129.406L71.5557 115.225C66.0377 112.615 59.5703 112.496 59.5703 105.613C59.5703 98.7308 56.5443 97.1881 55.951 93.9248L44.4403 93.9248L33.167 93.9248C32.5737 97.1881 29.3103 99.5021 29.3103 105.613C29.3103 111.725 23.021 112.615 17.5623 115.107L17.5623 129.703C17.5623 143.943 19.995 158.183 24.7417 172.126L44.381 229.442L64.1983 172.423C69.123 158.301 71.5557 143.883 71.5557 129.465L71.5557 129.406Z" fill="#FF4850"/>
<path d="M2.96612 11.748C2.07612 11.748 1.30479 12.5194 1.30479 13.4094L1.30479 37.38C1.30479 38.27 2.07612 39.0414 2.96612 39.0414C3.85612 39.0414 4.62746 38.27 4.62746 37.38L4.62746 13.4094C4.62746 12.5194 3.85612 11.748 2.96612 11.748Z" fill="black"/>
<path d="M86.2113 11.748C85.3213 11.748 84.55 12.5194 84.55 13.4094L84.55 37.38C84.55 38.27 85.3213 39.0414 86.2113 39.0414C87.1013 39.0414 87.8727 38.27 87.8727 37.38L87.8727 13.4094C87.8727 12.5194 87.1013 11.748 86.2113 11.748Z" fill="black"/>
<path d="M80.159 10.0869L8.60304 10.0869L8.60304 23.6149L80.159 23.6149L80.159 10.0869Z" fill="#FF2800"/>
<path d="M55.3578 36.0151L32.7518 36.0151C31.8342 36.0151 31.0904 36.7589 31.0904 37.6765L31.0904 46.0425C31.0904 46.96 31.8342 47.7038 32.7518 47.7038L55.3578 47.7038C56.2753 47.7038 57.0191 46.96 57.0191 46.0425L57.0191 37.6765C57.0191 36.7589 56.2753 36.0151 55.3578 36.0151Z" fill="#242424"/>
<path d="M72.3271 62.7151L44.0251 74.9971L15.7824 62.7151L15.7824 58.2651L44.0251 70.5471L72.3271 58.2651L72.3271 62.7151Z" fill="#0A0A0A"/>
<path d="M72.3271 63.9017L44.0251 83.6003L15.7824 63.9017L15.7824 59.4517L44.0251 79.1503L72.3271 59.4517L72.3271 63.9017Z" fill="#242424"/>
<path d="M69.8352 58.2056L19.2239 58.2056L19.2239 63.1302L69.8352 63.1302L69.8352 58.2056Z" fill="#383838"/>
<path d="M61.9437 56.3662L27.1744 56.3662C25.9619 56.3662 24.979 57.3491 24.979 58.5615L24.979 62.8335C24.979 64.046 25.9619 65.0289 27.1744 65.0289L61.9437 65.0289C63.1562 65.0289 64.139 64.046 64.139 62.8335L64.139 58.5615C64.139 57.3491 63.1562 56.3662 61.9437 56.3662Z" fill="#242424"/>
<path d="M20.0543 74.404L20.0543 51.0267C20.0543 47.291 17.026 44.2627 13.2903 44.2627L7.47568 44.2627C3.74003 44.2627 0.711676 47.291 0.711675 51.0267L0.711674 74.404C0.711674 78.1397 3.74002 81.168 7.47568 81.168L13.2903 81.168C17.026 81.168 20.0543 78.1397 20.0543 74.404Z" fill="#242424"/>
<path d="M0.711996 51.0264L0.711995 74.4038C0.711995 74.7598 0.711993 75.1751 0.830659 75.5311L19.9953 75.5311C20.0547 75.1751 20.114 74.8191 20.114 74.4038L20.114 51.0264C20.114 50.8484 20.114 50.7298 20.114 50.5518L0.830661 50.5518C0.830661 50.6704 0.830661 50.8484 0.830661 51.0264L0.711996 51.0264Z" fill="#333333"/>
<path d="M0.711996 56.6035L0.711995 69.0635C0.711995 69.2415 0.711993 69.4789 0.83066 69.6569L19.9953 69.6569C20.0547 69.4789 20.114 69.2415 20.114 69.0635L20.114 56.6035C20.114 56.5442 20.114 56.4255 20.114 56.3662L0.830661 56.3662C0.830661 56.4255 0.830661 56.5442 0.830661 56.6035L0.711996 56.6035Z" fill="#3D3D3D"/>
<path d="M4.2123 80.3373C4.44963 80.456 4.74629 80.5746 4.98362 80.6933L4.98362 44.7373C4.68696 44.856 4.44963 44.9746 4.2123 45.0933L4.2123 80.3373Z" fill="#0B1114"/>
<path d="M6.40768 81.0491C6.64501 81.0491 6.94168 81.1085 7.17901 81.1085L7.17901 44.2031C6.94168 44.2031 6.64501 44.2031 6.40768 44.2625L6.40768 80.9898L6.40768 81.0491Z" fill="#0B1114"/>
<path d="M16.4947 80.3373C16.2574 80.456 15.9607 80.5746 15.7234 80.6933L15.7234 44.7373C16.02 44.856 16.2574 44.9746 16.4947 45.0933L16.4947 80.3373Z" fill="#0B1114"/>
<path d="M14.2993 81.0491C14.062 81.0491 13.7653 81.1085 13.528 81.1085L13.528 44.2031C13.7653 44.2031 14.062 44.2031 14.2993 44.2625L14.2993 80.9898L14.2993 81.0491Z" fill="#0B1114"/>
<path d="M88.4067 74.404L88.4067 51.0267C88.4067 47.291 85.3783 44.2627 81.6427 44.2627L75.828 44.2627C72.0923 44.2627 69.064 47.291 69.064 51.0267L69.064 74.404C69.064 78.1397 72.0923 81.168 75.828 81.168L81.6427 81.168C85.3783 81.168 88.4067 78.1397 88.4067 74.404Z" fill="#242424"/>
<path d="M69.064 51.0264L69.064 74.4038C69.064 74.7598 69.064 75.1751 69.1827 75.5311L88.288 75.5311C88.3473 75.1751 88.4067 74.8191 88.4067 74.4038L88.4067 51.0264C88.4067 50.8484 88.4067 50.7298 88.4067 50.5518L69.1233 50.5518C69.1233 50.6704 69.1233 50.8484 69.1233 51.0264L69.064 51.0264Z" fill="#333333"/>
<path d="M69.064 56.6035L69.064 69.0635C69.064 69.2415 69.064 69.4789 69.1827 69.6569L88.288 69.6569C88.3473 69.4789 88.4067 69.2415 88.4067 69.0635L88.4067 56.6035C88.4067 56.5442 88.4067 56.4255 88.4067 56.3662L69.1233 56.3662C69.1233 56.4255 69.1233 56.5442 69.1233 56.6035L69.064 56.6035Z" fill="#3D3D3D"/>
<path d="M72.5642 80.3373C72.8015 80.456 73.0982 80.5746 73.3355 80.6933L73.3355 44.7373C73.0389 44.856 72.8015 44.9746 72.5642 45.0933L72.5642 80.3373Z" fill="#0B1114"/>
<path d="M74.76 81.0491C74.9973 81.0491 75.294 81.1085 75.5313 81.1085L75.5313 44.2031C75.294 44.2031 74.9973 44.2031 74.76 44.2625L74.76 80.9898L74.76 81.0491Z" fill="#0B1114"/>
<path d="M84.8465 80.3373C84.6092 80.456 84.3125 80.5746 84.0752 80.6933L84.0752 44.7373C84.3719 44.856 84.6092 44.9746 84.8465 45.0933L84.8465 80.3373Z" fill="#0B1114"/>
<path d="M82.7108 81.0491C82.4734 81.0491 82.1768 81.1085 81.9394 81.1085L81.9394 44.2031C82.1768 44.2031 82.4734 44.2031 82.7108 44.2625L82.7108 80.9898L82.7108 81.0491Z" fill="#0B1114"/>
<path d="M56.4259 101.994L32.6925 101.994L38.2699 5.93333C38.4479 2.61067 41.2365 -6.63947e-07 44.5592 -5.18708e-07C47.8819 -3.7347e-07 50.6112 2.61067 50.8485 5.93333L56.4259 101.994Z" fill="#FF4850"/>
<path d="M55.5358 101.994L33.5825 101.994L38.7445 5.93333C38.9225 2.61067 41.4738 -6.14669e-07 44.5591 -4.79805e-07C47.6445 -3.44941e-07 50.1958 2.61067 50.3738 5.93333L55.5358 101.994Z" fill="#FF2800"/>
<path opacity="0.2" d="M72.5645 10.0869L73.8105 14.5962C74.2259 16.0796 74.8785 17.5629 75.7092 18.8682C76.3025 19.7582 75.5905 20.8262 74.5819 20.7669L56.4259 19.2836C55.9512 19.2836 55.4765 19.6396 55.4765 20.1142L55.4765 23.6149L82.9479 23.6149L82.9479 10.0869L72.5645 10.0869Z" fill="black"/>
<path d="M56.4259 23.6151C56.4259 23.6151 59.0959 28.0651 64.3766 28.0651C69.6573 28.0651 70.0726 29.0738 72.0306 30.9131C73.9293 32.6931 76.4806 33.7018 79.0913 33.7018L82.4139 33.7018L82.4139 22.4878L56.4259 20.2925L56.4259 23.6151Z" fill="white"/>
<path d="M81.7612 38.9822L81.8799 38.9822C84.2532 38.9822 86.2112 37.0242 86.2112 34.6509L86.2112 10.0869L73.7512 10.0869L74.9972 14.5962C75.4125 16.0796 76.0652 17.5629 76.8959 18.8682C78.8539 21.9536 79.8032 25.6322 79.5065 29.3109L79.3285 31.3282C79.2099 32.6336 79.4472 33.9389 79.9812 35.1849L81.6425 39.0416L81.7612 38.9822Z" fill="#242424"/>
<path opacity="0.2" d="M16.3165 10.0869L15.0705 14.5962C14.6552 16.0796 14.0025 17.5629 13.1719 18.8682C12.5785 19.7582 13.2905 20.8262 14.2992 20.7669L32.4552 19.2836C32.9298 19.2836 33.4045 19.6396 33.4045 20.1142L33.4045 23.6149L5.99252 23.6149L5.99252 10.0869L16.3759 10.0869L16.3165 10.0869Z" fill="black"/>
<path d="M32.3957 23.6151C32.3957 23.6151 29.7257 28.0651 24.445 28.0651C19.1643 28.0651 18.749 29.0738 16.791 30.9131C14.8923 32.6931 12.341 33.7018 9.73034 33.7018L6.40768 33.7018L6.40768 22.4878L32.3957 20.2925L32.3957 23.6151Z" fill="white"/>
<path d="M7.11953 38.9822C4.62754 38.9822 2.66954 36.9649 2.66954 34.5322L2.66954 10.0869L15.1295 10.0869L13.8835 14.5962C13.4682 16.0796 12.8155 17.5629 11.9849 18.8682C10.0269 21.9536 9.07754 25.6322 9.3742 29.3109L9.55221 31.3282C9.67087 32.6336 9.43353 33.9389 8.89953 35.1849L7.2382 39.0416L7.11953 38.9822Z" fill="#242424"/>
<path d="M32.6328 199.419L56.7221 199.419C58.7394 199.419 60.3414 201.021 60.3414 203.039L60.3414 222.203L28.9541 222.203L28.9541 203.039C28.9541 201.021 30.5561 199.419 32.5734 199.419L32.6328 199.419Z" fill="#333333"/>
<path d="M88.9996 227.009L88.9996 203.098C88.9996 199.264 85.8916 196.156 82.0576 196.156L76.1243 196.156C72.2903 196.156 69.1823 199.264 69.1823 203.098L69.1823 227.009C69.1823 230.843 72.2903 233.951 76.1243 233.951L82.0576 233.951C85.8916 233.951 88.9996 230.843 88.9996 227.009Z" fill="#242424"/>
<path d="M69.1821 203.098L69.1821 227.009C69.1821 227.424 69.1821 227.78 69.3007 228.136L88.8807 228.136C88.9401 227.78 88.9994 227.365 88.9994 227.009L88.9994 203.098C88.9994 202.92 88.9994 202.801 88.9994 202.623L69.2414 202.623C69.2414 202.801 69.2414 202.92 69.2414 203.098L69.1821 203.098Z" fill="#333333"/>
<path d="M69.1821 208.794L69.1821 221.551C69.1821 221.788 69.1821 221.966 69.3007 222.144L88.8807 222.144C88.9401 221.966 88.9994 221.729 88.9994 221.551L88.9994 208.794C88.9994 208.735 88.9994 208.616 88.9994 208.557L69.2414 208.557C69.2414 208.616 69.2414 208.735 69.2414 208.794L69.1821 208.794Z" fill="#3D3D3D"/>
<path d="M72.8013 233.061C73.0387 233.18 73.3353 233.298 73.632 233.417L73.632 196.63C73.3353 196.749 73.098 196.868 72.8013 196.986L72.8013 233.061Z" fill="#0B1114"/>
<path d="M75.056 233.832C75.2933 233.832 75.59 233.892 75.8866 233.892L75.8866 196.156C75.59 196.156 75.3526 196.156 75.056 196.215L75.056 233.773L75.056 233.832Z" fill="#0B1114"/>
<path d="M85.38 233.061C85.1426 233.18 84.846 233.298 84.5493 233.417L84.5493 196.63C84.846 196.749 85.0833 196.868 85.38 196.986L85.38 233.061Z" fill="#0B1114"/>
<path d="M83.1846 233.832C82.9472 233.832 82.6506 233.892 82.3539 233.892L82.3539 196.156C82.6506 196.156 82.8879 196.156 83.1846 196.215L83.1846 233.773L83.1846 233.832Z" fill="#0B1114"/>
<path d="M69.1826 209.684L57.3753 206.005C56.7226 205.768 56.0106 206.064 56.0106 206.539L56.0106 208.141C56.0106 208.378 56.1886 208.616 56.5446 208.675L69.2419 212.65L69.2419 209.624L69.1826 209.684Z" fill="#1A1A1A"/>
<path d="M69.1823 216.329L54.883 211.523C54.349 211.345 53.6963 211.583 53.6963 211.998L53.6963 213.363C53.6963 213.541 53.8743 213.719 54.1116 213.837L69.123 218.94L69.123 216.389L69.1823 216.329Z" fill="#1A1A1A"/>
<path d="M19.8166 227.009L19.8166 203.098C19.8166 199.264 16.7086 196.156 12.8746 196.156L6.9413 196.156C3.10734 196.156 -0.000699179 199.264 -0.000699347 203.098L-0.000700392 227.009C-0.00070056 230.843 3.10734 233.951 6.9413 233.951L12.8746 233.951C16.7086 233.951 19.8166 230.843 19.8166 227.009Z" fill="#242424"/>
<path d="M19.8169 203.098L19.8168 227.009C19.8168 227.424 19.8168 227.78 19.6982 228.136L0.118181 228.136C0.0588478 227.78 -0.000483676 227.365 -0.00048366 227.009L-0.000482615 203.098C-0.000482607 202.92 -0.000482602 202.801 -0.000482594 202.623L19.7575 202.623C19.7575 202.801 19.7575 202.92 19.7575 203.098L19.8169 203.098Z" fill="#333333"/>
<path d="M19.8169 208.794L19.8169 221.551C19.8169 221.788 19.8168 221.966 19.6982 222.144L0.118182 222.144C0.0588483 221.966 -0.00048317 221.729 -0.000483162 221.551L-0.000482605 208.794C-0.000482602 208.735 -0.000482597 208.616 -0.000482594 208.557L19.7575 208.557C19.7575 208.616 19.7575 208.735 19.7575 208.794L19.8169 208.794Z" fill="#3D3D3D"/>
<path d="M16.1973 233.061C15.96 233.18 15.6633 233.298 15.3667 233.417L15.3667 196.63C15.6633 196.749 15.9007 196.868 16.1973 196.986L16.1973 233.061Z" fill="#0B1114"/>
<path d="M14.0019 233.832C13.7646 233.832 13.4679 233.892 13.1713 233.892L13.1713 196.156C13.4679 196.156 13.7053 196.156 14.0019 196.215L14.0019 233.773L14.0019 233.832Z" fill="#0B1114"/>
<path d="M3.61919 233.061C3.85652 233.18 4.15319 233.298 4.44985 233.417L4.44985 196.63C4.15319 196.749 3.91586 196.868 3.61919 196.986L3.61919 233.061Z" fill="#0B1114"/>
<path d="M5.87341 233.832C6.11074 233.832 6.40741 233.892 6.70408 233.892L6.70408 196.156C6.40742 196.156 6.17008 196.156 5.87341 196.215L5.87341 233.773L5.87341 233.832Z" fill="#0B1114"/>
<path d="M19.8761 209.684L31.6835 206.005C32.3361 205.768 33.0481 206.064 33.0481 206.539L33.0481 208.141C33.0481 208.378 32.8701 208.616 32.5141 208.675L19.8168 212.65L19.8168 209.624L19.8761 209.684Z" fill="#1A1A1A"/>
<path d="M19.8762 216.329L34.1756 211.523C34.7096 211.345 35.3622 211.583 35.3622 211.998L35.3622 213.363C35.3622 213.541 35.1842 213.719 34.9469 213.837L19.9356 218.94L19.9356 216.389L19.8762 216.329Z" fill="#1A1A1A"/>
<path d="M24.9793 112.199L24.9793 129.703C24.9793 143.943 26.7 158.183 30.2007 172.126L44.4407 229.323L44.6187 228.849L58.8587 172.363C62.4187 158.242 64.1987 143.824 64.1987 129.406L64.1987 112.318C61.5287 111.072 59.63 109.351 59.63 105.613C59.63 99.5021 55.7733 97.1881 55.1207 93.9248L44.4407 93.9248L33.998 93.9248C33.4047 97.1881 29.2513 99.5021 29.2513 105.613C29.2513 111.725 27.4713 111.013 24.92 112.199L24.9793 112.199Z" fill="#E6E6E6"/>
<path d="M60.8167 129.406L60.8167 109.826C60.0453 108.758 59.5707 107.453 59.5707 105.613C59.5707 99.5021 55.714 97.1881 55.0613 93.9248L33.998 93.9248C33.4047 97.1881 29.2514 99.5021 29.2514 105.613C29.2514 111.725 28.8954 108.521 28.2427 109.529L28.2427 129.762C28.2427 144.002 29.6667 158.242 32.574 172.185L44.3813 229.501L56.3073 172.482C59.274 158.361 60.7573 143.943 60.7573 129.525L60.8167 129.406Z" fill="#FF2800"/>
<path d="M50.1368 129.406L50.1368 109.826C49.8401 108.758 49.7214 107.453 49.7214 105.613C49.7214 99.5021 48.3568 97.1881 48.1788 93.9248L40.8808 93.9248C40.6434 97.1881 39.2194 99.5021 39.2194 105.613C39.2194 111.725 39.1008 108.521 38.8634 109.529L38.8634 129.762C38.8634 144.002 39.3381 158.242 40.3468 172.185L44.4407 229.501L48.5941 172.482C49.6028 158.361 50.1368 143.943 50.1368 129.525L50.1368 129.406Z" fill="#FF4850"/>
<path d="M51.62 219.177L63.9613 228.433C64.614 228.908 65.504 228.433 65.504 227.662L65.504 223.39C65.504 223.093 65.3853 222.797 65.148 222.619L51.7387 212.591C51.086 212.116 50.196 212.591 50.196 213.363L50.196 216.329C50.196 217.457 50.73 218.525 51.62 219.237L51.62 219.177Z" fill="#0B1114"/>
<path d="M37.8543 219.177L25.5129 228.433C24.8602 228.908 23.9703 228.433 23.9703 227.662L23.9703 223.39C23.9703 223.093 24.0889 222.797 24.3262 222.619L37.7356 212.591C38.3882 212.116 39.2782 212.591 39.2782 213.363L39.2782 216.329C39.2782 217.457 38.7443 218.525 37.8543 219.237L37.8543 219.177Z" fill="#0B1114"/>
<path d="M68.3523 244.394L45.5683 242.792C44.7969 242.792 44.0256 242.792 43.2543 242.792L20.4703 244.394L20.4703 220.482L41.4743 219.118C43.4323 218.999 45.3309 218.999 47.2889 219.118L68.2929 220.482L68.2929 244.394L68.3523 244.394Z" fill="white"/>
<path d="M47.3483 219.118C45.3903 218.999 43.4916 218.999 41.5336 219.118L20.5296 220.482L20.5296 226.95L41.5336 225.585C43.4916 225.466 45.3903 225.466 47.3483 225.585L68.3523 226.95L68.3523 220.482L47.3483 219.118Z" fill="#E0E0E0"/>
<path d="M20.7077 251.454C21.1231 251.454 21.4197 251.158 21.4197 250.742L21.4197 220.423C21.4197 220.008 21.1231 219.711 20.7077 219.711L17.9784 219.711C17.5631 219.711 17.2664 220.067 17.2664 220.482L19.9957 250.802C19.9957 251.158 20.3517 251.454 20.7077 251.454Z" fill="#FF2800"/>
<path d="M68.1146 251.454C67.6992 251.454 67.4026 251.158 67.4026 250.742L67.4026 220.423C67.4026 220.008 67.6992 219.711 68.1146 219.711L70.8439 219.711C71.2592 219.711 71.5559 220.067 71.5559 220.482L68.8266 250.802C68.8266 251.158 68.4706 251.454 68.1146 251.454Z" fill="#FF2800"/>
<path d="M38.8037 93.4502L50.7297 93.4502C52.7471 93.4502 54.3491 95.0522 54.3491 97.0695L54.3491 122.405C54.3491 127.27 50.3737 131.246 45.5084 131.246L43.9657 131.246C39.1004 131.246 35.1251 127.27 35.1251 122.405L35.1251 97.0695C35.1251 95.0522 36.7271 93.4502 38.7444 93.4502L38.8037 93.4502Z" fill="#0B1114"/>
<path d="M38.8037 93.4502L50.7297 93.4502C52.7471 93.4502 54.3491 95.0522 54.3491 97.0695L54.3491 122.405C54.3491 127.27 50.3737 131.246 45.5084 131.246L43.9657 131.246C39.1004 131.246 35.1251 127.27 35.1251 122.405L35.1251 97.0695C35.1251 95.0522 36.7271 93.4502 38.7444 93.4502L38.8037 93.4502Z" fill="#242424"/>
<path d="M44.5001 133.678L44.6781 133.678C45.7461 133.678 46.5768 134.509 46.5768 135.577L46.5768 147.266C46.5768 148.334 45.7461 149.164 44.6781 149.164L44.5001 149.164C43.4321 149.164 42.6015 148.334 42.6015 147.266L42.6015 135.577C42.6015 134.509 43.4321 133.678 44.5001 133.678Z" fill="#0B1114"/>
<path d="M52.8662 144.121L52.8662 138.603C52.8662 136.964 51.538 135.636 49.8995 135.636L39.1602 135.636C37.5217 135.636 36.1935 136.964 36.1935 138.603L36.1935 144.121C36.1935 145.759 37.5217 147.088 39.1602 147.088L49.8995 147.088C51.538 147.088 52.8662 145.759 52.8662 144.121Z" fill="#242424"/>
<path d="M35.1251 90.1272L30.5564 90.1272L32.5144 83.1259C32.6924 82.4732 33.3451 81.9985 33.9977 81.9985C34.8877 81.9985 35.5997 82.7699 35.5404 83.6599L35.1251 90.1272Z" fill="#FF4850"/>
<path d="M35.2439 90.1274L30.2599 90.1274C30.0633 90.1274 29.9039 90.2868 29.9039 90.4834L29.9039 90.5428C29.9039 90.7394 30.0633 90.8988 30.2599 90.8988L35.2439 90.8988C35.4405 90.8988 35.5999 90.7394 35.5999 90.5428L35.5999 90.4834C35.5999 90.2868 35.4405 90.1274 35.2439 90.1274Z" fill="#242424"/>
<path d="M53.1623 90.1272L57.7309 90.1272L55.7729 83.1259C55.5949 82.4732 54.9423 81.9985 54.2896 81.9985C53.3996 81.9985 52.6876 82.7699 52.747 83.6599L53.1623 90.1272Z" fill="#FF4850"/>
<path d="M53.0436 90.8984L58.0276 90.8984C58.2242 90.8984 58.3836 90.739 58.3836 90.5424L58.3836 90.4831C58.3836 90.2865 58.2242 90.1271 58.0276 90.1271L53.0436 90.1271C52.847 90.1271 52.6876 90.2865 52.6876 90.4831L52.6876 90.5424C52.6876 90.739 52.847 90.8984 53.0436 90.8984Z" fill="#242424"/>
<path d="M53.2807 94.3402C52.6874 93.7469 51.8567 93.4502 50.9667 93.4502L38.3881 93.4502C37.4981 93.4502 36.6674 93.8062 36.0741 94.3402L53.2214 94.3402L53.2807 94.3402Z" fill="black"/>
<path d="M46.0428 93.6279L43.3728 93.6279L43.3728 96.7726L46.0428 96.7726L46.0428 93.6279Z" fill="black"/>
<path d="M54.3495 123.176L54.3495 105.495C53.8155 104.189 52.5695 103.299 51.0862 103.299L38.5075 103.299C37.0242 103.299 35.7188 104.249 35.1848 105.554L35.1848 123.176C35.1848 127.626 38.8042 131.245 43.2542 131.245L46.3395 131.245C50.7895 131.245 54.4088 127.626 54.4088 123.176L54.3495 123.176Z" fill="black"/>
<path d="M54.2897 105.732L35.1251 105.732L35.1251 108.877L54.2897 108.877L54.2897 105.732Z" fill="#242424"/>
<path d="M51.4418 99.1458C46.9918 97.6625 42.4231 97.6625 38.0324 99.1458C37.5577 99.3238 37.0831 98.8492 36.9644 98.1372C36.8458 97.4252 37.1424 96.6538 37.6764 96.4758C42.3638 94.9332 47.1697 94.9332 51.7977 96.4758C52.2724 96.6538 52.6284 97.3658 52.5097 98.1372C52.3911 98.8492 51.9164 99.3238 51.4418 99.1458Z" fill="black"/>
</g>
<defs>
<filter id="filter0_f_303_19790" x="25.5131" y="234.366" width="10.68" height="25.5133" filterUnits="userSpaceOnUse" color-interpolation-filters="sRGB">
<feFlood flood-opacity="0" result="BackgroundImageFix"/>
<feBlend mode="normal" in="SourceGraphic" in2="BackgroundImageFix" result="shape"/>
<feGaussianBlur stdDeviation="1.18667" result="effect1_foregroundBlur_303_19790"/>
</filter>
<filter id="filter1_f_303_19790" x="26.997" y="234.366" width="7.71333" height="17.3551" filterUnits="userSpaceOnUse" color-interpolation-filters="sRGB">
<feFlood flood-opacity="0" result="BackgroundImageFix"/>
<feBlend mode="normal" in="SourceGraphic" in2="BackgroundImageFix" result="shape"/>
<feGaussianBlur stdDeviation="1.18667" result="effect1_foregroundBlur_303_19790"/>
</filter>
<filter id="filter2_f_303_19790" x="51.6199" y="234.366" width="10.68" height="25.5133" filterUnits="userSpaceOnUse" color-interpolation-filters="sRGB">
<feFlood flood-opacity="0" result="BackgroundImageFix"/>
<feBlend mode="normal" in="SourceGraphic" in2="BackgroundImageFix" result="shape"/>
<feGaussianBlur stdDeviation="1.18667" result="effect1_foregroundBlur_303_19790"/>
</filter>
<filter id="filter3_f_303_19790" x="53.1037" y="234.366" width="7.71333" height="17.3551" filterUnits="userSpaceOnUse" color-interpolation-filters="sRGB">
<feFlood flood-opacity="0" result="BackgroundImageFix"/>
<feBlend mode="normal" in="SourceGraphic" in2="BackgroundImageFix" result="shape"/>
<feGaussianBlur stdDeviation="1.18667" result="effect1_foregroundBlur_303_19790"/>
</filter>
<clipPath id="clip0_303_19790">
<rect width="251.455" height="89" fill="white" transform="translate(88.9998) rotate(90)"/>
</clipPath>
</defs>
</svg>
